HIERARCHY
ROOT Hips
{
	OFFSET	0.000000	0.000000	0.000000
	CHANNELS	6	Xposition	Yposition	Zposition	Zrotation	Xrotation	Yrotation
	JOINT LeftHip
	{
		OFFSET	15.500000	-8.200000	0.000000
		CHANNELS	3	Zrotation	Xrotation	Yrotation
		JOINT LeftKnee
		{
			OFFSET	0.000000	-41.000000	0.000000
			CHANNELS	3	Zrotation	Xrotation	Yrotation
			JOINT LeftAnkle
			{
				OFFSET	0.000000	-41.500000	0.000000
				CHANNELS	3	Zrotation	Xrotation	Yrotation
				End Site
				{
					OFFSET	0.000000	0.000000	22.875000
				}
			}
		}
	}
	JOINT RightHip
	{
		OFFSET	-15.500000	-8.200000	0.000000
		CHANNELS	3	Zrotation	Xrotation	Yrotation
		JOINT RightKnee
		{
			OFFSET	0.000000	-41.000000	0.000000
			CHANNELS	3	Zrotation	Xrotation	Yrotation
			JOINT RightAnkle
			{
				OFFSET	0.000000	-41.500000	0.000000
				CHANNELS	3	Zrotation	Xrotation	Yrotation
				End Site
				{
					OFFSET	0.000000	0.000000	22.875000
				}
			}
		}
	}
	JOINT Chest
	{
		OFFSET	0.000000	16.666667	0.000000
		CHANNELS	3	Zrotation	Xrotation	Yrotation
		JOINT LeftCollar
		{
			OFFSET	4.625000	33.333333	1.541667
			CHANNELS	3	Zrotation	Xrotation	Yrotation
			JOINT LeftShoulder
			{
				OFFSET	13.875000	0.000000	0.000000
				CHANNELS	3	Zrotation	Xrotation	Yrotation
				JOINT LeftElbow
				{
					OFFSET	0.000000	-28.000000	0.000000
					CHANNELS	3	Zrotation	Xrotation	Yrotation
					JOINT LeftWrist
					{
						OFFSET	0.000000	-25.000000	0.000000
						CHANNELS	3	Zrotation	Xrotation	Yrotation
						End Site
						{
							OFFSET	0.000000	-7.500000	0.000000
						}
					}
				}
			}
		}
		JOINT RightCollar
		{
			OFFSET	-4.625000	33.333333	1.541667
			CHANNELS	3	Zrotation	Xrotation	Yrotation
			JOINT RightShoulder
			{
				OFFSET	-13.875000	0.000000	0.000000
				CHANNELS	3	Zrotation	Xrotation	Yrotation
				JOINT RightElbow
				{
					OFFSET	0.000000	-28.000000	0.000000
					CHANNELS	3	Zrotation	Xrotation	Yrotation
					JOINT RightWrist
					{
						OFFSET	0.000000	-25.000000	0.000000
						CHANNELS	3	Zrotation	Xrotation	Yrotation
						End Site
						{
							OFFSET	0.000000	-7.500000	0.000000
						}
					}
				}
			}
		}
		JOINT Neck
		{
			OFFSET	0.000000	33.333333	0.000000
			CHANNELS	3	Zrotation	Xrotation	Yrotation
			JOINT Head
			{
				OFFSET	0.000000	12.000000	0.000000
				CHANNELS	3	Zrotation	Xrotation	Yrotation
				End Site
				{
					OFFSET	0.000000	15.000000	0.000000
				}
			}
		}
	}
}
MOTION
Frames:	12
Frame Time:	0.012000
-40.63	102.82	-67.31	-0.70	-2.98	5.44	-0.27	2.15	3.91	0.00	4.24	0.00	4.02	28.29	1.43	-0.49	0.50	-6.38	0.00	4.58	0.00	-9.81	29.37	10.07	0.98	-1.53	0.76	0.00	0.00	0.00	48.50	-84.90	36.55	-1.73	-6.14	9.09	3.27	-1.90	0.00	0.00	0.00	0.00	-162.42	-87.20	-179.24	0.70	-1.41	9.70	2.90	-1.25	0.00	0.00	0.00	0.00	-3.77	7.56	-4.91
-40.63	102.82	-67.25	-0.70	-2.98	5.44	-0.27	2.13	3.92	0.00	4.29	0.00	4.03	28.29	1.42	-0.50	0.54	-6.34	0.00	4.53	0.00	-9.80	29.37	10.06	0.95	-1.53	0.76	0.00	0.00	0.00	48.37	-84.90	36.45	-1.74	-6.15	9.07	3.26	-1.90	0.00	0.00	0.00	0.00	-162.50	-87.21	-179.29	0.70	-1.42	9.68	2.90	-1.25	0.00	0.00	0.00	0.00	-3.74	7.56	-4.91
-40.64	102.83	-67.23	-0.72	-2.98	5.44	-0.26	2.16	3.92	0.00	4.29	0.00	4.04	28.31	1.43	-0.50	0.55	-6.31	0.00	4.50	0.00	-9.81	29.38	10.05	0.95	-1.53	0.76	0.00	0.00	0.00	48.40	-84.90	36.46	-1.74	-6.05	9.18	3.24	-1.89	0.00	0.00	0.00	0.00	-162.90	-87.21	-179.68	0.69	-1.44	9.68	2.90	-1.25	0.00	0.00	0.00	0.00	-3.66	7.63	-5.01
-40.60	102.84	-67.18	-0.72	-2.98	5.44	-0.26	2.14	3.93	0.00	4.33	0.00	4.04	28.29	1.42	-0.51	0.55	-6.30	0.00	4.49	0.00	-9.80	29.38	10.02	0.95	-1.52	0.76	0.00	0.00	0.00	48.43	-84.92	36.55	-1.72	-6.09	9.18	3.24	-1.89	0.00	0.00	0.00	0.00	-162.56	-87.22	-179.34	0.71	-1.43	9.69	2.88	-1.25	0.00	0.00	0.00	0.00	-3.65	7.62	-5.01
-40.61	102.84	-67.18	-0.72	-2.98	5.44	-0.25	2.14	3.93	0.00	4.34	0.00	4.04	28.28	1.42	-0.51	0.54	-6.28	0.00	4.48	0.00	-9.79	29.33	10.06	0.94	-1.52	0.75	0.00	0.00	0.00	48.48	-84.92	36.60	-1.73	-6.10	9.19	3.25	-1.90	0.00	0.00	0.00	0.00	-162.43	-87.21	-179.20	0.71	-1.43	9.69	2.86	-1.25	0.00	0.00	0.00	0.00	-3.64	7.62	-5.00
-40.61	102.85	-67.17	-0.71	-2.97	5.41	-0.25	2.12	3.93	0.00	4.37	0.00	4.05	28.27	1.41	-0.52	0.53	-6.26	0.00	4.45	0.00	-9.80	29.40	10.06	0.93	-1.52	0.74	0.00	0.00	0.00	48.47	-84.92	36.58	-1.74	-6.12	9.19	3.26	-1.91	0.00	0.00	0.00	0.00	-162.16	-87.18	-178.94	0.72	-1.38	9.70	2.86	-1.25	0.00	0.00	0.00	0.00	-3.67	7.65	-5.02
-40.63	102.86	-67.15	-0.71	-2.97	5.41	-0.24	2.10	3.94	0.00	4.40	0.00	4.04	28.27	1.43	-0.52	0.51	-6.23	0.00	4.43	0.00	-9.76	29.48	10.03	0.92	-1.52	0.74	0.00	0.00	0.00	48.53	-84.93	36.65	-1.74	-6.10	9.19	3.27	-1.91	0.00	0.00	0.00	0.00	-161.84	-87.18	-178.60	0.73	-1.35	9.70	2.85	-1.25	0.00	0.00	0.00	0.00	-3.66	7.64	-5.01
-40.65	102.86	-67.16	-0.71	-2.97	5.41	-0.23	2.09	3.94	0.00	4.42	0.00	4.05	28.28	1.44	-0.52	0.51	-6.23	0.00	4.42	0.00	-9.76	29.52	9.97	0.91	-1.53	0.73	0.00	0.00	0.00	48.70	-84.94	36.81	-1.75	-6.10	9.21	3.28	-1.91	0.00	0.00	0.00	0.00	-161.70	-87.16	-178.44	0.74	-1.38	9.67	2.85	-1.25	0.00	0.00	0.00	0.00	-3.65	7.65	-5.00
-40.66	102.87	-67.15	-0.71	-2.94	5.40	-0.23	2.07	3.93	0.00	4.44	0.00	4.06	28.26	1.44	-0.52	0.49	-6.21	0.00	4.39	0.00	-9.75	29.54	9.95	0.90	-1.52	0.72	0.00	0.00	0.00	48.78	-84.94	36.89	-1.75	-6.09	9.22	3.27	-1.90	0.00	0.00	0.00	0.00	-161.20	-87.16	-177.93	0.76	-1.37	9.67	2.85	-1.25	0.00	0.00	0.00	0.00	-3.68	7.68	-5.00
-40.67	102.87	-67.14	-0.71	-2.94	5.40	-0.22	2.05	3.92	0.00	4.46	0.00	4.06	28.26	1.43	-0.52	0.46	-6.23	0.00	4.41	0.00	-9.75	29.56	9.96	0.90	-1.52	0.72	0.00	0.00	0.00	48.84	-84.94	36.94	-1.75	-6.10	9.25	3.27	-1.90	0.00	0.00	0.00	0.00	-161.05	-87.15	-177.78	0.77	-1.37	9.65	2.86	-1.24	0.00	0.00	0.00	0.00	-3.67	7.68	-4.99
-40.69	102.87	-67.16	-0.71	-2.94	5.40	-0.21	2.03	3.91	0.00	4.47	0.00	4.06	28.24	1.43	-0.53	0.45	-6.22	0.00	4.41	0.00	-9.75	29.55	9.97	0.90	-1.51	0.71	0.00	0.00	0.00	48.86	-84.95	36.95	-1.75	-6.10	9.25	3.26	-1.89	0.00	0.00	0.00	0.00	-160.39	-87.11	-177.12	0.79	-1.35	9.64	2.87	-1.24	0.00	0.00	0.00	0.00	-3.67	7.67	-4.98
-40.70	102.87	-67.19	-0.72	-2.94	5.36	-0.20	2.01	3.90	0.00	4.47	0.00	4.08	28.35	1.45	-0.53	0.43	-6.22	0.00	4.41	0.00	-9.73	29.51	9.97	0.89	-1.51	0.70	0.00	0.00	0.00	48.94	-84.94	37.03	-1.76	-6.11	9.25	3.25	-1.89	0.00	0.00	0.00	0.00	-160.01	-87.12	-176.74	0.81	-1.36	9.62	2.87	-1.23	0.00	0.00	0.00	0.00	-3.70	7.75	-4.90
